<?xml version="1.0" encoding="utf-8"?>
<!-- Generator: Adobe Illustrator 22.0.0, SVG Export Plug-In . SVG Version: 6.00 Build 0)  -->
<svg version="1.1" id="Layer_1" xmlns="http://www.w3.org/2000/svg" xmlns:xlink="http://www.w3.org/1999/xlink" x="0px" y="0px"
	 viewBox="0 0 1080 1080" style="enable-background:new 0 0 1080 1080;" xml:space="preserve">
<style type="text/css">
	.st0{fill:#2FDA5C;}
	.st1{fill:#FFFFFF;}
	.st2{opacity:0.15;}
	.st3{opacity:0.2;}
	.st4{fill:#FFCC00;}
	.st5{fill:none;}
	.st6{filter:url(#Adobe_OpacityMaskFilter);}
	.st7{opacity:0.35;mask:url(#SVGID_1_);}
</style>
<g>
	<path class="st0" d="M763.1,571.7c-1.3-18.8-3.9-37.9-7.8-57.4c-16.1-79.7-42.5-148.9-76.3-200.2c-37-56.3-79.6-86-123.3-86
		c-5.6,0-11.2,0.5-16.7,1.5c-43.9,8.1-78.7,47.8-100.6,114.9c-17,52.3-26.2,120.7-25.9,192.6c0.1,30.5,3.2,59.4,9.1,86.2"/>
	<path class="st0" d="M722.9,317.5c2.3,1.4,5.3,0.7,6.7-1.6l102.8-169.6c0.3-0.5,0.6-1,0.8-1.5c3.7-7.8,0.3-17.1-7.6-20.8
		c-7.8-3.7-17.1-0.3-20.8,7.6L721,311.2C720,313.4,720.8,316.1,722.9,317.5z"/>
	<path class="st0" d="M586.8,209.7c2.8,0.4,5.5-1.6,5.9-4.4l31.5-189.2c0.1-0.4,0.1-0.9,0.1-1.3C624.6,7,618.6,0.4,610.9,0
		c-7.8-0.4-14.4,5.6-14.8,13.4l-13.8,190.9C582.2,206.9,584.1,209.3,586.8,209.7z"/>
	<path class="st0" d="M441.1,247.7c2.2,2.2,5.7,2.5,8.2,0.5c2.6-2.1,3-6,0.9-8.6l-136-205.5c-0.4-0.4-0.8-0.9-1.2-1.3
		c-7-7.2-18.5-7.3-25.7-0.3c-7.2,7-7.3,18.5-0.3,25.7L441.1,247.7z"/>
	<path class="st0" d="M387.4,387c1.2-2.8-0.1-6-2.8-7.3l-177.1-77.2c-0.6-0.3-1.4-0.6-2.1-0.8c-9.3-2.7-19.1,2.6-21.9,11.9
		s2.6,19.1,11.9,21.9l185.3,54.5C383.5,390.8,386.3,389.5,387.4,387z"/>
</g>
<g>
	<g>
		<circle class="st1" cx="624" cy="806.8" r="273.2"/>
	</g>
	<g>
		<path d="M617.6,789.7c-10.6,12.2-23.6,22.2-37.9,29.8c-14.2,7.7-29.7,13-45.5,16.3c-15.8,3.3-32,4.7-48.2,4.2
			c-16.2-0.4-32.3-2.6-48.1-6.4c-31.5-7.6-61.7-21.9-87.4-42.5c-12.9-10.3-24.6-22.1-34.7-35.3c-10.1-13.1-18.7-27.6-25.4-42.8
			c-2.8-6.3,0-13.7,6.3-16.5c6.3-2.8,13.7,0,16.5,6.3c0.1,0.2,0.1,0.3,0.2,0.5l0,0.1c5.3,13.7,12.2,26.7,20.7,38.8
			c8.4,12.1,18.4,23.2,29.5,33c22.3,19.7,49.4,34.3,78.4,42.8c14.5,4.3,29.5,7,44.6,8.2c15.1,1.1,30.4,0.6,45.4-1.8
			c15-2.4,29.7-6.7,43.4-13.3c13.7-6.5,26.3-15.3,36.9-26.3l0,0c1.3-1.4,3.5-1.4,4.9-0.1C618.7,786.2,618.8,788.3,617.6,789.7z"/>
	</g>
	<g class="st2">
		<path d="M705.7,781.5c-4.1,5.3-7.9,10.4-10.5,15c0.5,1,1.4,2.6,2.9,4.6c14,19,23.6,35.9,30.4,53c7.7,19.3,15.4,41.9,9.1,66
			c-0.7,2.8-1.7,5.5-2.8,8.1c-12.8,29.5-43.7,30.5-55.4,30.9l-1.4,0c-0.5,0-1,0-1.5,0c-19.8,0-37-13-43.9-33.2
			c-2.8-8.1-3.4-15.6-3.7-22c-0.1-2.7-0.2-5.3-0.4-8c-0.4-9.7-0.7-18.8-2.6-26.3c-1.8-6.9-5.9-14.3-12.6-22.6
			c-11.4-14.1-27.8-25.8-40.8-34.3c-7.2-4.7-14.8-9.3-22.9-14.2c-25.8-15.6-52.6-31.7-73.2-56.9c-41.5-50.7-63.7-121.4-64-204.5
			c-0.3-71.9,8.9-140.3,25.9-192.6c21.9-67.1,56.6-106.8,100.6-114.9c5.5-1,11.1-1.5,16.7-1.5c43.7,0,86.3,29.7,123.3,86
			c33.7,51.3,60.1,120.6,76.3,200.2c15.3,75.4,10.6,146.3-13.6,205.2c-8.2,19.9-18.5,38.4-30.6,54.9
			C709.3,776.7,707.5,779.1,705.7,781.5z"/>
	</g>
	<g class="st3">
		<path d="M676.6,945.8c-14,0-26.2-9.5-31.3-24.1c-2.2-6.5-2.7-12.9-3-18.4c-0.1-2.6-0.2-5.2-0.3-7.9c-0.4-10.4-0.8-20.2-3.1-29.1
			c-2.3-8.8-7.2-17.8-15.1-27.6c-12.6-15.6-30-28-43.8-37.1c-7.4-4.9-15.2-9.6-23.4-14.5c-24.9-15-50.6-30.5-69.8-53.9
			c-39.6-48.3-60.7-116.1-61-196.1c-0.5-125.9,29.4-278.5,115.6-294.3c4.7-0.9,9.5-1.3,14.3-1.3c39,0,77.8,27.7,112.2,80
			c32.8,49.9,58.5,117.5,74.3,195.6c14.7,72.8,10.3,141.1-12.8,197.4c-7.8,18.9-17.5,36.4-29,52.1c-1.7,2.3-3.5,4.6-5.2,6.9
			c-5.4,7-10.5,13.7-13.5,20.6c-1.2,2.9,0.9,8.5,5.8,15.1c13.3,18.1,22.4,34,28.8,50c6.9,17.3,13.8,37.5,8.6,57.7
			c-0.6,2.1-1.3,4.2-2.1,6.1c-9.5,21.8-31.6,22.5-43.5,22.8l-1.5,0C677.3,945.8,677,945.8,676.6,945.8z"/>
	</g>
	<g>
		<path class="st4" d="M707.6,912.3c4-15.3-2.3-32.5-7.9-46.7c-6.6-16.7-16-31.6-26.6-46.1c-6.7-9.1-12.7-21.2-7.7-32.7
			c5-11.5,13.3-20.9,20.7-30.9c10.9-14.9,19.9-31.2,26.9-48.3c24.3-59.1,24.4-125.3,11.9-187.1c-33.5-165.3-111.5-272.9-180.1-260.3
			S443.1,405.7,443.7,537c0.3,65,14.9,133.5,57,184.9c23.2,28.3,59.1,45,89.2,64.9c17.3,11.4,34.6,24.4,47.9,40.8
			c8.2,10.1,15.2,21.7,18.5,34.4c3.4,13.2,3.3,27,3.9,40.5c0.2,4.6,0.6,9.2,2,13.5c2.2,6.5,7.6,12.4,14.9,12.1
			c11.1-0.4,24.1-0.2,29.3-12.2C706.9,914.6,707.3,913.5,707.6,912.3z"/>
	</g>
	<g>
		<path d="M721,311.2l83.9-179.7c3.7-7.8,13-11.2,20.8-7.6c7.8,3.7,11.2,13,7.6,20.8c-0.2,0.5-0.5,1-0.8,1.5L729.7,315.8
			c-1.4,2.3-4.4,3.1-6.7,1.6C720.8,316.1,720,313.4,721,311.2z"/>
	</g>
	<g>
		<path d="M582.3,204.3l13.8-190.9c0.4-7.8,7-13.8,14.8-13.4c7.8,0.4,13.8,7,13.4,14.8c0,0.4-0.1,0.9-0.1,1.3l-31.5,189.2
			c-0.4,2.8-3,4.8-5.9,4.4C584.1,209.3,582.2,206.9,582.3,204.3z"/>
	</g>
	<g>
		<path d="M441.1,247.7L287,58.2c-7-7.2-6.9-18.7,0.3-25.7c7.2-7,18.7-6.9,25.7,0.3c0.4,0.4,0.8,0.9,1.2,1.3l136,205.5
			c2.1,2.6,1.7,6.5-0.9,8.6C446.9,250.2,443.3,249.9,441.1,247.7z"/>
	</g>
	<g>
		<path d="M380.8,390.1l-185.3-54.5c-9.3-2.7-14.7-12.5-11.9-21.9c2.7-9.3,12.5-14.7,21.9-11.9c0.7,0.2,1.4,0.5,2.1,0.8l177.1,77.2
			c2.8,1.2,4.1,4.5,2.8,7.3C386.3,389.5,383.5,390.8,380.8,390.1z"/>
	</g>
	<g>
		<path d="M514,645c4.2,11.8,9.2,23.4,15.5,34.1c6.3,10.7,14.1,20.5,23,28.8c9,8.3,19.4,15.1,30.7,19.4c11.3,4.4,23.6,6.1,35.7,5.1
			c12.1-1,24.1-4.8,34.6-11.2c10.5-6.3,19.8-15,27.1-25.1c7.4-10.1,12.9-21.6,16.7-33.7c3.8-12.1,5.8-24.8,6.6-37.6l0-0.1
			c0.1-1.9,1.8-3.4,3.7-3.3c1.9,0.1,3.3,1.7,3.3,3.6c-0.4,13.3-2.1,26.7-5.7,39.7c-3.6,13-9.1,25.5-16.8,36.8
			c-7.7,11.3-17.6,21.2-29.2,28.7c-0.7,0.5-1.4,1-2.2,1.4l-2.3,1.3l-4.6,2.5c-1.5,0.8-3.2,1.4-4.8,2.1c-1.6,0.7-3.2,1.4-4.8,2
			l-5,1.6l-2.5,0.8c-0.8,0.2-1.7,0.4-2.6,0.6l-5.1,1.1c-0.9,0.2-1.7,0.3-2.6,0.4l-2.6,0.3c-13.9,1.6-28.2,0.1-41.4-4.5
			c-13.2-4.6-25.4-12-35.9-21.1c-10.5-9.1-19.4-19.8-26.8-31.4c-7.3-11.6-13.2-24-18.1-36.7c-1.7-4.4,0.5-9.3,4.9-11
			c4.4-1.7,9.3,0.5,11,4.9c0,0.1,0.1,0.1,0.1,0.2L514,645z"/>
	</g>
	<g>
		<path d="M549.2,570.9c-10.7,2.2-19.9-14.2-25.3-34.8c17.7-20.3,17.7-21.3,17.7-21.3L518.8,501c-0.5-19.7,3.6-35.8,14.3-36.1
			C562.7,464.3,578.6,564.8,549.2,570.9z"/>
	</g>
	<g>
		<g>
			<path d="M640.6,549.4c-8.3,2.4-17.3-10.5-22.9-26.2c13.7-17,13.6-18,13.6-18c-7.9-3.7-11.9-5.6-19.8-9.5
				c-1.5-15.9,1.5-30,10.2-30C645.6,465.7,666.4,542,640.6,549.4z"/>
		</g>
	</g>
	<g>
		<path class="st5" d="M587,865.9"/>
	</g>
	<g>
		<path class="st5" d="M887.9,574.9"/>
	</g>
	<g>
		<path class="st5" d="M306.4,702.8"/>
	</g>
	<defs>
		<filter id="Adobe_OpacityMaskFilter" filterUnits="userSpaceOnUse" x="578.1" y="568.5" width="319.1" height="310.6">
			<feColorMatrix  type="matrix" values="1 0 0 0 0  0 1 0 0 0  0 0 1 0 0  0 0 0 1 0"/>
		</filter>
	</defs>
	<mask maskUnits="userSpaceOnUse" x="578.1" y="568.5" width="319.1" height="310.6" id="SVGID_1_">
		<g class="st6">
			<path class="st1" d="M707.6,914.5c4-15.3-2.3-32.5-7.9-46.7c-6.6-16.7-16-31.6-26.6-46.1c-6.7-9.1-12.7-21.2-7.7-32.7
				c5-11.5,13.3-20.9,20.7-30.9c10.9-14.9,19.9-31.2,26.9-48.3c24.3-59.1,24.4-125.3,11.9-187.1
				c-33.5-165.3-111.5-272.9-180.1-260.3c-68.6,12.6-101.6,145.5-101,276.7c0.3,65,14.9,133.5,57,184.9c23.2,28.3,59.1,45,89.2,64.9
				c17.3,11.4,34.6,24.4,47.9,40.8c8.2,10.1,15.2,21.7,18.5,34.4c3.4,13.2,3.3,27,3.9,40.5c0.2,4.6,0.6,9.2,2,13.5
				c2.2,6.5,7.6,12.4,14.9,12.1c11.1-0.4,24.1-0.2,29.3-12.2C706.9,916.9,707.3,915.7,707.6,914.5z"/>
		</g>
	</mask>
	<g class="st7">
		<g>
			<path d="M896.7,582.1c1.2,20.8-0.2,41.6-4,62c-3.8,20.3-10.1,40.1-18.5,58.9c-16.9,37.5-42.1,70.5-72.2,97.4
				c-30.1,26.9-65.2,48-102.9,61.7c-18.8,6.8-38.4,11.8-58.2,14.5c-19.8,2.7-39.9,3.2-59.8,1.1c-1.9-0.2-3.3-1.9-3.1-3.8
				c0.2-1.9,1.8-3.2,3.7-3.1l0,0c38.7,2.3,77.4-5.5,112.9-20.3c35.5-14.8,68-36.5,95.2-63.2c27.2-26.7,49.1-58.6,62.9-93.5
				c6.9-17.4,11.7-35.6,14.3-54c2.6-18.4,2.9-37,1-55.4l0,0c-0.8-7.9,4.9-15,12.9-15.8c7.9-0.8,15,4.9,15.8,12.9
				C896.7,581.6,896.7,581.9,896.7,582.1z"/>
		</g>
	</g>
	<g>
		<path d="M896.7,571.5c1.2,20.8-0.2,41.6-4,62c-3.8,20.3-10.1,40.1-18.5,58.9c-16.9,37.5-42.1,70.5-72.2,97.4
			c-30.1,26.9-65.2,48-102.9,61.7c-18.8,6.8-38.4,11.8-58.2,14.5c-19.8,2.7-39.9,3.2-59.8,1.1c-1.9-0.2-3.3-1.9-3.1-3.8
			c0.2-1.9,1.8-3.2,3.7-3.1l0,0c38.7,2.3,77.4-5.5,112.9-20.3c35.5-14.8,68-36.5,95.2-63.2c27.2-26.7,49.1-58.6,62.9-93.5
			c6.9-17.4,11.7-35.6,14.3-54c2.6-18.4,2.9-37,1-55.4l0,0c-0.8-7.9,4.9-15,12.9-15.8c7.9-0.8,15,4.9,15.8,12.9
			C896.7,571.1,896.7,571.3,896.7,571.5z"/>
	</g>
</g>
</svg>
